<?xml version="1.0" standalone="no"?>
<!DOCTYPE svg PUBLIC "-//W3C//DTD SVG 20010904//EN"
 "http://www.w3.org/TR/2001/REC-SVG-20010904/DTD/svg10.dtd">
<svg version="1.0" xmlns="http://www.w3.org/2000/svg"
 width="700.000000pt" height="700.000000pt" viewBox="0 0 700.000000 700.000000"
 preserveAspectRatio="xMidYMid meet">
<metadata>
Created by potrace 1.14, written by Peter Selinger 2001-2017
</metadata>
<g transform="translate(0.000000,700.000000) scale(0.100000,-0.100000)"
fill="#000000" stroke="none">
<path d="M0 3500 l0 -3500 3500 0 3500 0 0 3500 0 3500 -3500 0 -3500 0 0
-3500z m2816 1310 c3 0 22 11 42 25 20 14 40 25 44 25 5 0 8 -11 8 -25 0 -14
4 -25 9 -25 5 0 23 -12 40 -26 24 -20 31 -34 31 -62 1 -33 2 -35 14 -19 13 16
15 15 34 -18 12 -19 25 -35 30 -35 5 0 14 -11 20 -24 6 -14 22 -32 36 -42 21
-13 31 -14 58 -5 31 11 35 10 59 -20 14 -18 31 -29 37 -25 6 3 15 -1 20 -11 8
-14 -4 -31 -64 -91 -41 -41 -74 -78 -74 -83 0 -4 39 32 88 80 66 67 105 96
162 124 167 82 363 69 437 -29 l23 -31 -102 0 c-128 0 -188 -19 -348 -110
-241 -138 -328 -213 -356 -309 -25 -88 -6 -106 177 -159 218 -63 392 -57 521
19 32 19 58 31 58 26 0 -21 -131 -117 -215 -156 -168 -79 -317 -99 -409 -55
-55 27 -101 84 -117 145 -6 23 -20 56 -31 75 -21 33 -21 34 -3 110 20 87 42
140 80 201 28 44 40 96 25 105 -5 3 -25 -2 -44 -12 -74 -35 -155 18 -257 167
-32 47 -66 95 -76 107 -27 32 -93 73 -117 73 -13 -1 -7 -6 18 -15 21 -7 56
-31 77 -51 33 -32 37 -40 23 -47 -8 -5 -22 -6 -30 -3 -17 6 -19 -5 -3 -21 8
-8 6 -13 -9 -17 -45 -15 -86 -168 -86 -321 0 -136 18 -181 87 -214 50 -24 159
-29 203 -9 24 11 28 10 38 -6 6 -11 23 -32 37 -48 24 -26 26 -32 18 -76 -11
-56 -26 -104 -45 -140 -36 -70 1 -152 98 -217 29 -19 73 -58 97 -86 61 -71
105 -84 146 -43 22 22 19 50 -15 116 -40 78 -39 99 11 153 33 35 48 45 74 45
45 0 102 -53 144 -136 22 -41 47 -75 63 -84 25 -13 29 -13 55 6 30 23 29 15
37 236 l3 97 51 40 c43 35 102 99 102 112 0 3 -17 3 -37 1 -44 -4 -91 14 -151
58 l-44 31 7 62 c8 65 96 312 120 336 27 28 24 6 -10 -64 -33 -68 -56 -137
-40 -123 9 8 53 -23 143 -100 64 -55 78 -82 23 -42 -17 12 -31 19 -31 16 0 -2
32 -27 72 -55 67 -47 70 -51 42 -52 l-29 -1 28 -8 c16 -5 34 -14 42 -20 7 -6
87 -35 177 -64 100 -33 163 -58 163 -66 0 -8 35 -23 88 -38 48 -14 87 -28 87
-33 0 -15 -149 -101 -267 -154 -146 -65 -204 -85 -270 -92 l-51 -6 -7 -126
c-14 -257 -94 -748 -128 -789 -8 -11 -5 -18 13 -33 14 -10 30 -18 35 -18 6 0
0 7 -12 16 -13 8 -23 20 -23 26 0 6 11 0 25 -13 13 -12 22 -26 20 -31 -3 -4
83 -67 191 -140 181 -123 302 -216 247 -189 -13 6 -23 8 -23 5 0 -3 0 -8 0
-12 0 -3 14 -8 31 -10 21 -2 84 -42 193 -123 168 -124 326 -223 411 -257 51
-20 69 -46 39 -57 -10 -4 -26 1 -38 11 -11 10 -2 -3 20 -29 45 -52 134 -218
134 -249 0 -13 -10 -24 -31 -31 -22 -8 -28 -15 -23 -27 23 -56 13 -75 -48 -92
-44 -11 -43 -6 -22 -107 6 -30 4 -33 -29 -47 -41 -17 -63 -12 -73 17 -3 11 -8
18 -10 15 -2 -2 32 -82 76 -178 76 -164 84 -178 147 -237 42 -40 94 -76 142
-100 l76 -37 200 3 c189 2 205 1 268 -21 63 -22 66 -25 45 -36 -17 -9 -18 -10
-3 -5 45 15 140 12 167 -4 38 -22 45 -44 13 -36 -19 5 -25 2 -25 -11 0 -11 -5
-15 -14 -12 -9 4 -17 -2 -21 -14 -4 -10 -11 -19 -17 -19 -6 0 -9 -2 -6 -5 8
-9 68 29 68 43 0 15 0 15 57 -4 61 -21 113 -62 152 -121 35 -52 42 -80 10 -39
-46 58 -172 106 -285 106 -57 1 -58 1 -34 16 23 14 24 14 3 9 -13 -3 -31 -7
-41 -10 -10 -3 -72 4 -136 15 -84 14 -163 20 -276 20 l-159 0 -67 50 c-36 28
-68 49 -70 47 -6 -6 129 -105 214 -155 l82 -49 -41 -12 c-23 -7 -38 -15 -36
-18 3 -3 37 4 76 16 38 11 96 21 128 21 54 0 64 -3 99 -35 l39 -34 -44 -1
c-48 0 -81 -21 -81 -51 0 -10 -12 -26 -28 -37 -27 -20 -27 -20 -98 2 -151 48
-391 194 -505 306 -51 51 -78 69 -111 77 -119 29 -130 30 -163 20 -50 -15
-123 14 -127 51 -2 22 -9 28 -35 30 -40 4 -42 16 -8 38 22 14 32 15 64 6 20
-7 48 -23 61 -37 20 -21 33 -25 79 -25 31 0 90 7 131 16 88 19 90 23 47 117
-15 32 -27 62 -27 67 0 5 -27 42 -59 83 -33 41 -76 97 -96 125 -36 50 -36 51
-18 78 9 15 31 35 48 45 16 11 24 19 16 19 -8 0 -31 -18 -52 -40 -21 -22 -43
-40 -49 -40 -5 0 -10 -7 -10 -16 0 -8 4 -13 9 -9 9 5 51 -40 51 -56 0 -5 -12
-12 -27 -15 -16 -4 -41 -18 -56 -31 -27 -21 -35 -23 -118 -18 -76 5 -96 3
-135 -14 -56 -25 -83 -26 -132 -6 -48 21 -75 47 -98 96 -13 31 -15 42 -6 48 8
5 0 11 -22 18 -32 10 -36 8 -55 -18 -13 -18 -31 -29 -45 -29 -35 0 -166 90
-212 146 -43 52 -104 148 -104 164 0 5 -4 11 -9 14 -5 4 -7 -3 -4 -14 6 -24
-22 -103 -43 -121 -12 -10 -17 -9 -27 5 -12 16 -15 14 -32 -24 -22 -50 -31
-56 -53 -39 -15 12 -15 12 1 -7 9 -11 17 -24 17 -29 0 -20 -45 -55 -72 -55
-19 0 -33 -8 -44 -26 -13 -19 -23 -24 -41 -19 -18 4 -30 -1 -49 -24 -13 -16
-41 -35 -62 -42 -20 -7 -31 -14 -24 -16 7 -3 12 -23 12 -51 0 -26 6 -59 14
-73 7 -14 16 -43 20 -64 14 -72 47 -146 69 -154 28 -11 152 2 194 20 23 9 40
10 59 4 39 -14 43 -35 6 -35 -31 0 -58 -22 -47 -39 3 -6 -7 -13 -22 -17 -15
-3 -41 -10 -56 -15 -16 -5 -70 -6 -120 -2 -59 4 -88 3 -84 -4 3 -5 -18 -17
-49 -27 -81 -26 -263 -119 -331 -171 -59 -44 -128 -113 -149 -150 -9 -17 -27
-20 -115 -25 -57 -4 -112 -10 -121 -14 -13 -6 -19 -2 -24 18 -7 29 -19 38 -81
59 -23 8 -47 10 -59 5 -18 -7 -18 -8 1 -6 58 4 135 -40 135 -77 0 -6 -26 -19
-57 -29 -69 -22 -174 -74 -222 -110 -54 -40 -63 -35 -42 27 42 121 88 186 134
188 31 2 31 2 4 6 -35 6 -31 22 14 48 37 22 117 26 229 12 67 -9 78 2 14 12
l-37 6 59 39 c118 79 318 256 289 256 -7 0 -18 -7 -25 -15 -16 -20 -266 -100
-360 -115 -41 -7 -123 -13 -182 -14 -60 -1 -108 -4 -108 -8 0 -8 -71 -31 -197
-63 -115 -28 -123 -29 -123 -14 0 6 -9 24 -20 39 -15 21 -26 27 -43 23 -20 -5
-19 -2 8 21 60 53 83 59 213 64 81 3 132 0 151 -8 20 -8 34 -8 47 -1 11 6 109
22 219 36 191 25 399 71 454 100 65 34 133 133 162 235 7 25 16 49 20 54 12
14 -42 39 -55 26 -14 -14 -89 -13 -121 2 -21 9 -28 9 -35 -1 -12 -20 -119 -6
-200 26 -78 31 -251 125 -302 165 -49 38 -78 101 -78 167 0 30 14 114 30 188
17 73 30 136 30 138 0 2 15 6 33 8 21 2 13 4 -23 6 -66 2 -81 10 -83 44 -1 14
-6 23 -11 20 -5 -4 -5 11 -1 33 11 54 11 58 0 164 -9 88 -10 91 -15 45 l-5
-50 -29 38 c-16 21 -37 67 -47 104 -24 87 -43 265 -34 322 4 25 8 125 9 222 1
175 1 175 -18 150 -66 -89 -107 -116 -245 -162 -109 -37 -123 -37 -88 -1 38
40 36 82 -5 117 -35 29 -32 34 32 55 38 13 39 12 78 -29 50 -53 98 -57 143
-12 48 49 42 93 -37 247 -92 178 -171 315 -197 339 l-21 20 17 -21 c26 -32 20
-40 -10 -13 l-28 24 26 -30 c15 -17 48 -70 74 -120 26 -49 44 -76 40 -60 l-6
30 22 -35 c41 -66 139 -273 139 -294 0 -43 -13 -67 -45 -82 -30 -14 -36 -14
-64 0 -17 9 -35 25 -41 36 -6 12 -16 18 -23 14 -7 -4 -2 4 11 18 12 13 22 33
22 45 0 28 -49 92 -107 142 -27 22 -59 59 -71 80 l-23 40 41 32 c22 18 40 36
40 41 0 4 -21 7 -47 6 l-48 -1 43 -6 43 -6 -50 -39 c-51 -38 -71 -59 -53 -54
5 2 55 -41 111 -95 95 -91 120 -129 108 -160 -6 -17 -252 -119 -291 -121 -25
-1 -32 6 -57 53 -16 30 -33 59 -39 65 -6 6 4 -17 22 -52 17 -35 48 -78 68 -95
19 -17 34 -35 32 -40 -2 -6 14 -7 38 -4 52 7 74 -11 59 -51 -15 -40 -29 -52
-57 -52 l-26 0 21 -22 c20 -19 25 -20 47 -8 14 7 28 21 32 32 3 10 12 18 20
18 29 0 218 70 256 95 21 14 38 20 38 14 0 -5 14 -1 30 11 l30 21 0 -40 c0
-37 -4 -42 -60 -82 -58 -40 -86 -68 -35 -35 27 18 49 21 40 6 -9 -14 -90 -54
-150 -74 -67 -21 -232 -56 -264 -55 -14 0 4 7 41 15 75 16 146 43 113 43 -11
0 -49 -6 -85 -14 -36 -8 -78 -14 -95 -14 -24 1 -21 3 14 10 65 13 70 26 8 21
-35 -3 -57 0 -62 7 -5 9 8 10 47 6 l53 -5 -50 14 c-62 17 -121 79 -202 211
-30 50 -63 99 -73 110 -19 22 -50 79 -50 92 0 4 10 -3 21 -17 20 -24 20 -23 0
10 -12 19 -27 45 -33 57 -6 12 -18 23 -28 26 -18 5 -82 128 -100 196 -8 32 -8
48 4 76 8 19 16 35 18 35 2 0 21 7 43 15 23 8 31 14 20 15 -32 0 -80 -35 -95
-69 -11 -28 -10 -40 9 -96 11 -36 21 -67 21 -69 0 -2 -14 -9 -30 -16 -44 -18
-70 -56 -69 -99 l2 -36 6 40 c9 53 15 62 62 85 l39 21 10 -25 c16 -44 62 -106
73 -99 6 4 8 0 5 -9 -6 -15 31 -86 93 -179 19 -30 46 -71 59 -93 l23 -39 -61
5 c-42 3 -80 14 -122 35 -33 18 -57 27 -54 21 5 -7 -4 -9 -28 -4 -27 5 -37 3
-42 -9 -10 -26 -42 0 -60 47 -8 24 -23 83 -32 131 -15 79 -21 93 -61 137 -43
48 -44 50 -37 99 6 44 4 51 -10 51 -26 0 -66 49 -66 82 0 16 12 52 26 80 29
57 27 85 -12 131 -38 45 -32 83 20 133 24 23 63 48 87 56 53 18 59 38 30 104
-29 65 -27 107 5 133 15 12 37 21 49 21 21 0 41 -12 156 -95 30 -22 44 -25 73
-20 36 7 58 25 123 103 31 37 40 42 77 42 27 0 60 -11 95 -30 43 -24 67 -30
112 -30 66 0 86 -14 108 -77 24 -68 63 -92 91 -57 26 30 50 37 70 19 30 -28
45 -82 29 -111 -11 -21 -10 -27 9 -47 36 -39 24 -97 -20 -97 -9 0 -22 9 -28
20 -14 26 -46 26 -60 -1 -7 -11 -27 -27 -45 -35 -19 -7 -38 -20 -42 -27 -13
-22 -43 -34 -103 -42 -33 -4 -64 -15 -77 -27 -14 -13 -32 -19 -55 -16 -31 3
-33 1 -36 -28 -4 -39 -29 -48 -61 -23 -20 16 -39 19 -130 17 -101 -1 -103 -2
-36 -7 72 -7 145 -40 145 -65 0 -30 -36 -46 -102 -45 -91 2 -125 -19 -98 -61
8 -12 10 -10 11 10 1 19 4 15 15 -19 14 -47 28 -69 22 -37 -2 14 4 22 22 27
25 7 25 7 -3 8 -23 1 -28 5 -25 24 3 20 9 22 84 27 90 5 124 24 124 66 0 14 8
25 20 29 14 4 20 15 20 36 0 27 3 29 38 29 25 0 45 7 56 19 11 12 36 20 73 24
35 4 67 14 82 26 14 12 40 28 56 37 17 9 42 27 57 41 l26 25 12 -22 c10 -19 9
-24 -9 -37 -41 -28 -29 -70 91 -301 l111 -216 17 60 c9 32 19 65 24 72 4 6 2
12 -3 12 -6 0 -11 11 -11 24 0 13 -4 26 -8 28 -9 3 -85 139 -80 142 45 28 66
44 98 73 22 19 43 32 48 29 5 -3 32 59 60 137 28 78 71 195 96 261 24 65 42
124 40 130 -5 13 10 157 22 215 5 25 4 32 -4 27 -8 -5 -12 0 -12 13 0 35 70
252 112 349 41 94 73 132 112 132 29 0 84 21 126 48 l35 22 3 -45 c2 -25 5
-45 8 -45z m2534 -155 c0 -3 -11 -22 -24 -43 -13 -20 -30 -63 -37 -94 -10 -50
-21 -66 -72 -119 -33 -33 -77 -72 -98 -86 -23 -15 -36 -30 -32 -39 3 -7 -5
-29 -17 -48 -24 -40 -181 -183 -229 -208 -18 -10 -29 -22 -26 -28 4 -6 2 -9
-4 -8 -5 2 -16 -5 -23 -16 -8 -10 -23 -17 -33 -15 -15 3 -3 22 63 97 45 51 85
104 88 117 3 13 21 36 40 50 19 14 34 31 34 37 0 6 18 27 40 46 23 19 39 37
36 40 -8 8 15 33 25 27 4 -3 26 18 48 47 22 29 63 78 91 108 29 30 66 74 83
98 27 37 47 53 47 37z m-2485 -214 c3 -5 -5 -13 -17 -16 -57 -18 -82 -79 -55
-134 9 -17 11 -31 6 -31 -17 0 -41 70 -34 101 13 58 80 112 100 80z m2493 -28
c-5 -25 -28 -28 -28 -4 0 12 6 21 16 21 9 0 14 -7 12 -17z m-518 -316 c0 -1
-26 -27 -57 -57 l-58 -55 55 58 c50 53 60 62 60 54z m-180 -171 c0 -2 -8 -10
-17 -17 -16 -13 -17 -12 -4 4 13 16 21 21 21 13z m-230 -225 c0 -15 -29 -33
-41 -25 -7 4 -9 3 -6 -3 4 -6 -8 -20 -26 -30 -45 -27 -232 -99 -291 -113 -51
-12 -79 -31 -81 -59 -1 -9 -12 -36 -24 -60 -12 -24 -20 -52 -18 -62 3 -12 1
-17 -5 -13 -7 5 -9 -2 -6 -20 3 -14 2 -26 -2 -26 -4 0 -10 -10 -13 -22 -12
-44 -15 -11 -7 72 5 47 9 118 9 158 l1 72 34 0 c44 0 148 33 243 76 41 18 79
31 84 28 5 -3 9 -2 9 3 0 4 18 9 41 10 22 2 48 7 57 13 21 12 42 13 42 1z
m-2362 -263 c90 -182 91 -183 79 -225 -6 -24 -14 -43 -18 -43 -13 0 -209 398
-209 424 0 22 5 26 28 26 27 0 34 -11 120 -182z m2050 40 c18 -18 14 -38 -7
-38 -23 0 -35 15 -27 35 7 18 18 19 34 3z m-2283 -119 c9 -17 15 -33 13 -35
-3 -2 -12 12 -21 31 -21 43 -13 47 8 4z m2134 -164 c-13 -77 -25 -98 -39 -75
-23 36 -4 144 33 188 19 23 22 -29 6 -113z m-2701 -100 c-3 -3 -9 2 -12 12 -6
14 -5 15 5 6 7 -7 10 -15 7 -18z m633 -195 c7 0 10 -3 7 -6 -10 -9 -47 15 -59
39 -10 18 -7 17 14 -5 14 -16 32 -28 38 -28z m154 -30 c-10 -11 -23 -20 -28
-20 -6 0 0 11 13 25 27 29 42 25 15 -5z m1929 -209 c9 -15 -18 -31 -34 -20
-13 8 -13 10 0 19 19 12 27 12 34 1z m484 -1853 c-2 -15 -11 -22 -28 -23 -14
-1 -42 -5 -64 -10 -36 -7 -38 -7 -27 13 16 29 40 41 84 42 34 0 38 -3 35 -22z
m-894 -24 c15 -6 42 -71 33 -80 -3 -3 -19 2 -36 10 -16 9 -37 16 -45 16 -10 0
-15 7 -13 18 6 38 25 50 61 36z m-1809 -170 c9 3 14 2 11 -2 -3 -5 4 -15 15
-22 33 -25 24 -47 -23 -55 -51 -8 -193 -68 -220 -92 -11 -10 -18 -12 -18 -4 0
25 30 68 79 114 59 55 109 81 128 65 7 -6 20 -8 28 -4z m3897 -234 c37 -51 75
-136 65 -146 -3 -3 -27 10 -54 29 -58 42 -109 68 -144 76 l-27 6 20 43 c19 39
23 42 62 42 38 0 44 -4 78 -50z"/>
<path d="M2610 4690 c-14 -26 -9 -73 8 -76 7 -1 8 0 2 3 -13 6 -13 49 0 74 6
10 8 19 6 19 -3 0 -10 -9 -16 -20z"/>
<path d="M3682 4260 c0 -14 2 -19 5 -12 2 6 2 18 0 25 -3 6 -5 1 -5 -13z"/>
<path d="M3780 4205 c19 -19 36 -35 39 -35 3 0 -10 16 -29 35 -19 19 -36 35
-39 35 -3 0 10 -16 29 -35z"/>
<path d="M3673 4190 c0 -25 2 -35 4 -22 2 12 2 32 0 45 -2 12 -4 2 -4 -23z"/>
<path d="M3663 4095 c0 -22 2 -30 4 -17 2 12 2 30 0 40 -3 9 -5 -1 -4 -23z"/>
<path d="M1545 3957 c-11 -6 -31 -12 -44 -12 -13 0 -26 -7 -29 -15 -5 -13 -3
-13 11 -1 14 11 20 11 32 1 11 -9 15 -9 15 -1 0 7 15 18 33 26 17 8 25 14 17
14 -8 0 -24 -5 -35 -12z"/>
<path d="M1614 3946 c11 -9 27 -16 35 -15 14 0 14 1 1 6 -8 3 -24 10 -35 15
-20 9 -20 9 -1 -6z"/>
<path d="M1694 3926 c11 -9 27 -16 35 -15 14 0 14 1 1 6 -8 3 -24 10 -35 15
-20 9 -20 9 -1 -6z"/>
<path d="M1757 3890 c4 -17 1 -18 -28 -14 -19 2 -72 0 -119 -5 l-85 -9 120 3
c96 3 121 6 123 18 2 8 -1 18 -7 21 -5 3 -7 -2 -4 -14z"/>
<path d="M1473 3880 c2 -8 14 -16 28 -17 19 -1 20 -1 4 4 -11 3 -24 10 -28 17
-6 7 -7 6 -4 -4z"/>
<path d="M1090 3783 c-16 -27 -32 -63 -36 -80 -6 -30 -10 -33 -40 -33 -48 0
-44 -24 7 -50 23 -12 44 -19 47 -16 3 3 1 6 -4 6 -5 0 -25 10 -44 22 l-35 22
34 6 c30 4 35 10 46 48 17 54 62 115 82 108 8 -3 11 -1 8 4 -13 21 -36 8 -65
-37z"/>
<path d="M1162 3789 c2 -7 17 -22 32 -33 l27 -21 50 28 c52 29 69 28 69 -2 0
-11 9 -29 21 -42 l21 -24 -16 25 c-9 13 -16 32 -16 41 0 9 -7 22 -15 29 -12
10 -23 7 -59 -14 -55 -32 -61 -32 -92 0 -15 14 -24 20 -22 13z"/>
<path d="M1491 3719 c-92 -11 -110 -23 -21 -14 61 6 64 5 40 -9 -32 -19 -19
-20 25 -2 19 8 35 20 35 25 0 6 -1 10 -2 10 -2 -1 -36 -5 -77 -10z"/>
<path d="M857 3713 c-9 -9 -9 -45 1 -60 4 -6 8 6 8 28 1 41 1 43 -9 32z"/>
<path d="M1435 3665 c-25 -12 -26 -14 -5 -9 28 7 60 23 45 23 -5 0 -23 -6 -40
-14z"/>
<path d="M1230 3644 c-25 -15 -58 -30 -75 -34 -26 -7 -27 -8 -6 -9 13 -1 48
13 79 31 52 29 58 31 99 20 24 -7 51 -12 61 -11 19 0 -74 28 -98 28 -8 1 -35
-11 -60 -25z"/>
<path d="M1088 3593 c6 -2 18 -2 25 0 6 3 1 5 -13 5 -14 0 -19 -2 -12 -5z"/>
<path d="M2890 3504 c-16 -49 -7 -136 19 -177 25 -39 27 -32 4 13 -21 44 -28
120 -14 161 6 18 9 34 7 36 -2 3 -10 -12 -16 -33z"/>
<path d="M1668 3523 c6 -2 18 -2 25 0 6 3 1 5 -13 5 -14 0 -19 -2 -12 -5z"/>
<path d="M1616 3501 c-10 -11 -16 -26 -13 -33 4 -9 6 -7 6 4 1 9 11 24 23 32
12 9 18 16 12 16 -6 0 -19 -9 -28 -19z"/>
<path d="M2201 3504 c0 -11 3 -14 6 -6 3 7 2 16 -1 19 -3 4 -6 -2 -5 -13z"/>
<path d="M990 3441 c0 -22 8 -48 19 -62 10 -13 21 -31 24 -39 5 -13 6 -13 6 1
1 9 -8 27 -20 40 -15 17 -20 34 -17 61 2 21 0 38 -4 38 -5 0 -8 -17 -8 -39z"/>
<path d="M1011 3453 c-1 -14 18 -27 39 -28 10 0 14 -9 13 -25 -1 -14 3 -42 9
-63 10 -32 9 -40 -5 -54 -15 -15 -16 -14 -23 11 -3 15 -9 25 -11 22 -7 -7 20
-76 29 -76 4 0 8 8 8 18 0 10 5 23 12 30 9 9 8 21 -2 51 -7 21 -9 44 -6 50 13
21 -4 51 -29 51 -13 0 -26 6 -28 13 -4 9 -6 9 -6 0z"/>
<path d="M1591 3433 c-1 -12 3 -33 9 -47 9 -24 7 -25 -33 -29 -40 -3 -40 -4
10 -5 l51 -2 -10 33 c-6 17 -14 41 -19 52 -7 19 -8 19 -8 -2z"/>
<path d="M2181 3404 c0 -11 3 -14 6 -6 3 7 2 16 -1 19 -3 4 -6 -2 -5 -13z"/>
<path d="M2485 3343 c-9 -43 -23 -103 -31 -134 -14 -57 -18 -86 -10 -78 8 7
68 280 64 285 -3 2 -13 -31 -23 -73z"/>
<path d="M3007 3353 c25 -5 36 -17 52 -58 l11 -30 -6 30 c-7 39 -32 65 -58 64
-20 -2 -20 -2 1 -6z"/>
<path d="M1473 3343 c9 -2 23 -2 30 0 6 3 -1 5 -18 5 -16 0 -22 -2 -12 -5z"/>
<path d="M2954 3328 l-19 -23 23 19 c21 18 27 26 19 26 -2 0 -12 -10 -23 -22z"/>
<path d="M1375 3330 c-27 -7 -27 -8 -5 -8 14 0 39 4 55 8 27 7 27 8 5 8 -14 0
-38 -4 -55 -8z"/>
<path d="M2203 3318 c-15 -20 -25 -38 -20 -38 3 0 12 11 21 25 17 26 16 35 -1
13z"/>
<path d="M1300 3254 c0 -6 7 -19 16 -30 14 -18 14 -18 3 6 -14 31 -19 36 -19
24z"/>
<path d="M1599 3243 c-13 -16 -12 -17 4 -4 16 13 21 21 13 21 -2 0 -10 -8 -17
-17z"/>
<path d="M3080 3218 c0 -9 12 -30 26 -47 27 -32 59 -39 99 -21 14 6 6 7 -22 3
-49 -6 -69 5 -89 52 -7 17 -13 23 -14 13z"/>
<path d="M1345 3173 c36 -56 106 -153 111 -153 3 0 -23 41 -57 90 -33 50 -63
90 -66 90 -3 0 3 -12 12 -27z"/>
<path d="M3238 3163 c6 -2 18 -2 25 0 6 3 1 5 -13 5 -14 0 -19 -2 -12 -5z"/>
<path d="M3302 3156 c15 -8 38 -22 50 -30 12 -9 27 -16 32 -16 6 0 -11 14 -37
30 -26 17 -53 30 -60 30 -7 0 0 -7 15 -14z"/>
<path d="M2407 3017 c-15 -58 -27 -112 -26 -119 0 -7 14 37 30 97 15 61 27
114 26 120 -2 5 -15 -39 -30 -98z"/>
<path d="M1061 3094 c0 -11 3 -14 6 -6 3 7 2 16 -1 19 -3 4 -6 -2 -5 -13z"/>
<path d="M2119 3065 c-3 -27 -5 -51 -3 -53 1 -2 11 14 24 34 13 23 15 33 6 25
-12 -10 -15 -8 -18 16 -3 20 -5 14 -9 -22z"/>
<path d="M3408 3103 c6 -2 18 -2 25 0 6 3 1 5 -13 5 -14 0 -19 -2 -12 -5z"/>
<path d="M3595 3099 c-15 -7 -12 -8 12 -3 34 6 32 9 46 -61 3 -14 5 -12 6 8 1
34 -15 67 -32 66 -7 0 -21 -5 -32 -10z"/>
<path d="M3470 3094 c35 -7 98 -9 94 -2 -3 5 -29 7 -57 7 -29 -1 -45 -3 -37
-5z"/>
<path d="M1115 2971 c8 -17 19 -33 25 -36 5 -3 1 10 -11 29 -25 43 -36 48 -14
7z"/>
<path d="M3656 2963 c-26 -26 -36 -32 -31 -18 15 43 15 49 -1 18 -25 -47 -10
-52 32 -12 l37 34 -6 -31 c-3 -18 -8 -45 -11 -60 -3 -16 1 -9 9 16 9 25 14 55
13 68 -3 22 -5 21 -42 -15z"/>
<path d="M2372 2860 c0 -14 2 -19 5 -12 2 6 2 18 0 25 -3 6 -5 1 -5 -13z"/>
<path d="M2407 2819 l-35 -41 -5 29 c-3 24 -4 22 -6 -9 0 -21 4 -38 9 -38 6 0
10 3 10 8 1 4 17 25 36 47 l36 40 -5 -95 c-3 -52 -2 -158 2 -235 l7 -140 79
-153 c43 -84 84 -157 91 -163 7 -6 -12 36 -42 93 -119 223 -118 218 -125 368
-4 74 -5 179 -2 233 4 66 3 97 -5 97 -6 0 -26 -18 -45 -41z"/>
<path d="M1985 2775 c-22 -13 -36 -25 -31 -25 10 0 76 39 76 46 0 7 -3 5 -45
-21z"/>
<path d="M3602 2683 c-23 -64 -41 -118 -38 -120 2 -2 23 48 46 112 23 64 41
118 39 120 -2 2 -23 -49 -47 -112z"/>
<path d="M1790 2720 c-25 -10 -39 -19 -32 -19 16 -1 82 26 82 33 0 7 3 8 -50
-14z"/>
<path d="M2131 2654 c0 -11 3 -14 6 -6 3 7 2 16 -1 19 -3 4 -6 -2 -5 -13z"/>
<path d="M2119 2599 c0 -22 -1 -23 -9 -4 l-9 20 0 -20 c0 -11 4 -29 9 -40 6
-17 9 -14 15 18 4 21 5 41 1 44 -3 4 -6 -5 -7 -18z"/>
<path d="M3517 2470 c-19 -44 -32 -80 -28 -80 8 0 74 150 68 156 -2 2 -20 -32
-40 -76z"/>
<path d="M4031 2238 c-13 -22 -13 -22 5 -6 10 9 33 18 49 21 29 4 29 4 -5 6
-27 1 -39 -4 -49 -21z"/>
<path d="M4128 2243 c7 -3 16 -2 19 1 4 3 -2 6 -13 5 -11 0 -14 -3 -6 -6z"/>
<path d="M3542 2169 l-2 -66 33 6 c31 5 31 6 5 9 -25 3 -27 7 -31 60 l-3 57
-2 -66z"/>
<path d="M4215 2213 c17 -8 38 -22 48 -31 21 -19 27 -14 16 13 -4 11 -8 14 -8
8 -1 -9 -11 -6 -33 7 -18 11 -37 20 -43 20 -5 -1 4 -8 20 -17z"/>
<path d="M4004 2198 c-4 -7 -14 -24 -22 -38 -14 -24 -13 -24 3 -5 20 24 37 55
31 55 -3 0 -8 -6 -12 -12z"/>
<path d="M3835 2160 c4 -6 -10 -31 -30 -56 l-37 -45 -39 36 c-21 19 -47 35
-57 34 -12 0 -9 -3 8 -10 14 -6 40 -24 58 -42 l33 -32 20 27 c11 14 28 36 38
49 l18 22 22 -37 c30 -47 51 -45 91 9 8 11 1 8 -16 -7 -17 -16 -34 -28 -40
-28 -5 0 -22 20 -37 45 -16 25 -31 45 -34 45 -2 0 -1 -5 2 -10z"/>
<path d="M3205 2066 c39 -37 69 -71 68 -76 -2 -6 5 -10 15 -10 10 0 22 -3 28
-7 29 -23 -22 23 -96 86 l-85 73 70 -66z"/>
<path d="M3618 2123 c7 -3 16 -2 19 1 4 3 -2 6 -13 5 -11 0 -14 -3 -6 -6z"/>
<path d="M3374 2016 c-3 -8 -4 -31 -1 -52 3 -37 4 -36 5 9 2 45 4 48 25 42 17
-5 19 -4 7 4 -20 14 -30 14 -36 -3z"/>
<path d="M3532 2010 c0 -14 2 -19 5 -12 2 6 2 18 0 25 -3 6 -5 1 -5 -13z"/>
<path d="M3437 1999 c7 -7 15 -10 18 -7 3 3 -2 9 -12 12 -14 6 -15 5 -6 -5z"/>
<path d="M2783 1967 c4 -28 19 -67 45 -121 3 -5 -1 -5 -8 -1 -9 5 -11 4 -6 -3
4 -7 13 -12 21 -12 11 0 8 12 -10 48 -32 62 -43 108 -24 97 12 -8 12 -6 0 8
-20 25 -24 21 -18 -16z"/>
<path d="M3234 1968 l-19 -23 23 19 c12 11 22 21 22 23 0 8 -8 2 -26 -19z"/>
<path d="M3508 1973 c7 -3 16 -2 19 1 4 3 -2 6 -13 5 -11 0 -14 -3 -6 -6z"/>
<path d="M3074 1956 c-3 -8 -4 -29 -1 -48 4 -33 4 -33 5 6 2 31 5 37 18 32 14
-5 15 -4 4 9 -15 19 -19 19 -26 1z"/>
<path d="M2260 1939 c-22 -18 -22 -19 -3 -10 12 6 25 16 28 21 9 15 3 12 -25
-11z"/>
<path d="M2830 1937 c14 -16 34 -33 45 -39 21 -11 20 -10 -35 37 l-35 30 25
-28z"/>
<path d="M2583 1933 c9 -2 23 -2 30 0 6 3 -1 5 -18 5 -16 0 -22 -2 -12 -5z"/>
<path d="M3129 1926 c20 -24 59 -25 78 -2 18 21 18 21 -2 4 -18 -15 -24 -15
-54 -2 -28 12 -32 12 -22 0z"/>
<path d="M2505 1910 c-3 -6 1 -7 9 -4 18 7 21 14 7 14 -6 0 -13 -4 -16 -10z"/>
<path d="M2660 1916 c0 -2 8 -10 18 -17 15 -13 16 -12 3 4 -13 16 -21 21 -21
13z"/>
<path d="M2440 1875 c-14 -8 -20 -14 -14 -15 5 0 19 7 30 15 24 18 16 19 -16
0z"/>
<path d="M2740 1865 c0 -8 4 -15 10 -15 5 0 7 7 4 15 -4 8 -8 15 -10 15 -2 0
-4 -7 -4 -15z"/>
<path d="M2928 1873 c7 -3 16 -2 19 1 4 3 -2 6 -13 5 -11 0 -14 -3 -6 -6z"/>
<path d="M3023 1873 c9 -2 23 -2 30 0 6 3 -1 5 -18 5 -16 0 -22 -2 -12 -5z"/>
<path d="M3512 1750 c0 -14 2 -19 5 -12 2 6 2 18 0 25 -3 6 -5 1 -5 -13z"/>
<path d="M3555 1650 c9 -16 18 -30 21 -30 2 0 -2 14 -11 30 -9 17 -18 30 -21
30 -2 0 2 -13 11 -30z"/>
<path d="M4777 1332 c24 -38 26 -40 19 -16 -6 19 -3 21 21 18 28 -4 20 1 -29
16 l-28 9 17 -27z"/>
<path d="M3058 1143 c6 -2 18 -2 25 0 6 3 1 5 -13 5 -14 0 -19 -2 -12 -5z"/>
<path d="M3113 1143 c9 -2 25 -2 35 0 9 3 1 5 -18 5 -19 0 -27 -2 -17 -5z"/>
</g>
</svg>
